<mxfile host="app.diagrams.net" modified="2023-12-24T03:31:48.763Z" agent="Mozilla/5.0 (Windows NT 10.0; Win64; x64) AppleWebKit/537.36 (KHTML, like Gecko) Chrome/120.0.0.0 Safari/537.36" etag="8Y_1aYUVzmwSlLab-NXO" version="21.1.5" type="device" pages="2">
  <diagram name="Page-1" id="SFx5zs0DyJiji02dy962">
    <mxGraphModel dx="880" dy="468" grid="1" gridSize="10" guides="1" tooltips="1" connect="1" arrows="1" fold="1" page="1" pageScale="1" pageWidth="850" pageHeight="1100" math="0" shadow="0">
      <root>
        <mxCell id="0" />
        <mxCell id="1" parent="0" />
        <mxCell id="PNIS4zw99rI1mf5-5don-10" style="edgeStyle=orthogonalEdgeStyle;rounded=0;orthogonalLoop=1;jettySize=auto;html=1;entryX=0.5;entryY=0;entryDx=0;entryDy=0;" parent="1" source="PNIS4zw99rI1mf5-5don-1" target="PNIS4zw99rI1mf5-5don-3" edge="1">
          <mxGeometry relative="1" as="geometry">
            <Array as="points">
              <mxPoint x="380" y="120" />
              <mxPoint x="150" y="120" />
            </Array>
          </mxGeometry>
        </mxCell>
        <mxCell id="PNIS4zw99rI1mf5-5don-1" value="Sistem Perusahaan" style="rounded=1;whiteSpace=wrap;html=1;" parent="1" vertex="1">
          <mxGeometry x="320" y="50" width="120" height="60" as="geometry" />
        </mxCell>
        <mxCell id="PNIS4zw99rI1mf5-5don-2" value="Bank" style="rounded=1;whiteSpace=wrap;html=1;" parent="1" vertex="1">
          <mxGeometry x="600" y="50" width="120" height="60" as="geometry" />
        </mxCell>
        <mxCell id="PNIS4zw99rI1mf5-5don-3" value="Karyawan" style="rounded=1;whiteSpace=wrap;html=1;" parent="1" vertex="1">
          <mxGeometry x="90" y="160" width="120" height="60" as="geometry" />
        </mxCell>
        <mxCell id="PNIS4zw99rI1mf5-5don-4" value="Rekening Bank" style="rounded=1;whiteSpace=wrap;html=1;" parent="1" vertex="1">
          <mxGeometry x="600" y="160" width="120" height="60" as="geometry" />
        </mxCell>
        <mxCell id="PNIS4zw99rI1mf5-5don-5" value="Id Karyawan" style="ellipse;whiteSpace=wrap;html=1;" parent="1" vertex="1">
          <mxGeometry x="30" y="240" width="80" height="60" as="geometry" />
        </mxCell>
        <mxCell id="PNIS4zw99rI1mf5-5don-6" value="Nama" style="ellipse;whiteSpace=wrap;html=1;" parent="1" vertex="1">
          <mxGeometry x="30" y="310" width="80" height="60" as="geometry" />
        </mxCell>
        <mxCell id="PNIS4zw99rI1mf5-5don-7" value="Departemen" style="ellipse;whiteSpace=wrap;html=1;" parent="1" vertex="1">
          <mxGeometry x="30" y="380" width="80" height="60" as="geometry" />
        </mxCell>
        <mxCell id="PNIS4zw99rI1mf5-5don-8" value="Jabatan" style="ellipse;whiteSpace=wrap;html=1;" parent="1" vertex="1">
          <mxGeometry x="30" y="450" width="80" height="60" as="geometry" />
        </mxCell>
        <mxCell id="PNIS4zw99rI1mf5-5don-9" value="Masa Jabatan" style="ellipse;whiteSpace=wrap;html=1;" parent="1" vertex="1">
          <mxGeometry x="30" y="520" width="80" height="60" as="geometry" />
        </mxCell>
        <mxCell id="PNIS4zw99rI1mf5-5don-11" value="Administrasi" style="rounded=1;whiteSpace=wrap;html=1;" parent="1" vertex="1">
          <mxGeometry x="260" y="160" width="120" height="60" as="geometry" />
        </mxCell>
        <mxCell id="PNIS4zw99rI1mf5-5don-12" value="Id Karyawan" style="ellipse;whiteSpace=wrap;html=1;" parent="1" vertex="1">
          <mxGeometry x="230" y="240" width="80" height="60" as="geometry" />
        </mxCell>
        <mxCell id="PNIS4zw99rI1mf5-5don-13" value="Cuti" style="ellipse;whiteSpace=wrap;html=1;" parent="1" vertex="1">
          <mxGeometry x="230" y="450" width="80" height="60" as="geometry" />
        </mxCell>
        <mxCell id="PNIS4zw99rI1mf5-5don-14" value="Absen" style="ellipse;whiteSpace=wrap;html=1;" parent="1" vertex="1">
          <mxGeometry x="230" y="380" width="80" height="60" as="geometry" />
        </mxCell>
        <mxCell id="PNIS4zw99rI1mf5-5don-15" value="Izin" style="ellipse;whiteSpace=wrap;html=1;" parent="1" vertex="1">
          <mxGeometry x="230" y="310" width="80" height="60" as="geometry" />
        </mxCell>
        <mxCell id="PNIS4zw99rI1mf5-5don-16" value="Id Karyawan" style="ellipse;whiteSpace=wrap;html=1;" parent="1" vertex="1">
          <mxGeometry x="570" y="240" width="80" height="60" as="geometry" />
        </mxCell>
        <mxCell id="PNIS4zw99rI1mf5-5don-17" value="Id Karyawan" style="ellipse;whiteSpace=wrap;html=1;" parent="1" vertex="1">
          <mxGeometry x="570" y="380" width="80" height="60" as="geometry" />
        </mxCell>
        <mxCell id="PNIS4zw99rI1mf5-5don-18" value="Rekening Karyawan" style="ellipse;whiteSpace=wrap;html=1;" parent="1" vertex="1">
          <mxGeometry x="570" y="310" width="80" height="60" as="geometry" />
        </mxCell>
        <mxCell id="PNIS4zw99rI1mf5-5don-19" value="Administrasi" style="rounded=1;whiteSpace=wrap;html=1;" parent="1" vertex="1">
          <mxGeometry x="430" y="160" width="120" height="60" as="geometry" />
        </mxCell>
      </root>
    </mxGraphModel>
  </diagram>
  <diagram id="M1BMIE_ALdFsdAkzGHGq" name="Page-2">
    <mxGraphModel dx="1760" dy="2036" grid="1" gridSize="10" guides="1" tooltips="1" connect="1" arrows="1" fold="1" page="1" pageScale="1" pageWidth="850" pageHeight="1100" math="0" shadow="0">
      <root>
        <mxCell id="0" />
        <mxCell id="1" parent="0" />
        <mxCell id="ZxTAI9Kc_Le6QeIQkic4-1" value="Sistem Penggajian Karyawan Perusahaan" style="swimlane;childLayout=stackLayout;resizeParent=1;resizeParentMax=0;startSize=40;html=1;direction=east;" parent="1" vertex="1">
          <mxGeometry x="160" y="-1080" width="919.9999999999995" height="980" as="geometry" />
        </mxCell>
        <mxCell id="ZxTAI9Kc_Le6QeIQkic4-2" value="Data Karyawan" style="swimlane;startSize=50;html=1;" parent="ZxTAI9Kc_Le6QeIQkic4-1" vertex="1">
          <mxGeometry y="40" width="184.99999999999955" height="940" as="geometry" />
        </mxCell>
        <mxCell id="ZxTAI9Kc_Le6QeIQkic4-23" style="edgeStyle=orthogonalEdgeStyle;rounded=0;orthogonalLoop=1;jettySize=auto;html=1;exitX=0.5;exitY=1;exitDx=0;exitDy=0;entryX=0.5;entryY=1;entryDx=0;entryDy=0;" parent="ZxTAI9Kc_Le6QeIQkic4-2" source="ZxTAI9Kc_Le6QeIQkic4-16" target="ZxTAI9Kc_Le6QeIQkic4-18" edge="1">
          <mxGeometry relative="1" as="geometry" />
        </mxCell>
        <mxCell id="ZxTAI9Kc_Le6QeIQkic4-16" value="Mulai" style="ellipse;whiteSpace=wrap;html=1;" parent="ZxTAI9Kc_Le6QeIQkic4-2" vertex="1">
          <mxGeometry x="57.499999999999545" y="60" width="70" height="50" as="geometry" />
        </mxCell>
        <mxCell id="ZxTAI9Kc_Le6QeIQkic4-24" value="" style="edgeStyle=orthogonalEdgeStyle;rounded=0;orthogonalLoop=1;jettySize=auto;html=1;" parent="ZxTAI9Kc_Le6QeIQkic4-2" source="ZxTAI9Kc_Le6QeIQkic4-18" target="ZxTAI9Kc_Le6QeIQkic4-20" edge="1">
          <mxGeometry relative="1" as="geometry" />
        </mxCell>
        <mxCell id="ZxTAI9Kc_Le6QeIQkic4-18" value="&lt;div&gt;Input&lt;/div&gt;&lt;div&gt;&amp;nbsp;data pribadi&lt;/div&gt;" style="shape=trapezoid;perimeter=trapezoidPerimeter;whiteSpace=wrap;html=1;fixedSize=1;direction=west;" parent="ZxTAI9Kc_Le6QeIQkic4-2" vertex="1">
          <mxGeometry x="42.5" y="130" width="100" height="50" as="geometry" />
        </mxCell>
        <mxCell id="ZxTAI9Kc_Le6QeIQkic4-20" value="Biodata" style="shape=document;whiteSpace=wrap;html=1;boundedLbl=1;" parent="ZxTAI9Kc_Le6QeIQkic4-2" vertex="1">
          <mxGeometry x="48.75" y="200" width="87.5" height="70" as="geometry" />
        </mxCell>
        <mxCell id="ZxTAI9Kc_Le6QeIQkic4-33" value="" style="edgeStyle=orthogonalEdgeStyle;rounded=0;orthogonalLoop=1;jettySize=auto;html=1;" parent="ZxTAI9Kc_Le6QeIQkic4-2" source="ZxTAI9Kc_Le6QeIQkic4-31" target="ZxTAI9Kc_Le6QeIQkic4-32" edge="1">
          <mxGeometry relative="1" as="geometry" />
        </mxCell>
        <mxCell id="ZxTAI9Kc_Le6QeIQkic4-31" value="A" style="ellipse;whiteSpace=wrap;html=1;rounded=1;" parent="ZxTAI9Kc_Le6QeIQkic4-2" vertex="1">
          <mxGeometry x="71.55999999999955" y="320" width="41.87" height="40" as="geometry" />
        </mxCell>
        <mxCell id="ZxTAI9Kc_Le6QeIQkic4-32" value="&lt;div&gt;Input Absensi&lt;/div&gt;&lt;div&gt;harian&lt;br&gt;&lt;/div&gt;" style="shape=parallelogram;perimeter=parallelogramPerimeter;whiteSpace=wrap;html=1;fixedSize=1;rounded=1;" parent="ZxTAI9Kc_Le6QeIQkic4-2" vertex="1">
          <mxGeometry x="35.62" y="390" width="113.74" height="50" as="geometry" />
        </mxCell>
        <mxCell id="ZxTAI9Kc_Le6QeIQkic4-72" style="edgeStyle=orthogonalEdgeStyle;rounded=0;orthogonalLoop=1;jettySize=auto;html=1;exitX=0.5;exitY=1;exitDx=0;exitDy=0;" parent="ZxTAI9Kc_Le6QeIQkic4-2" source="ZxTAI9Kc_Le6QeIQkic4-66" target="ZxTAI9Kc_Le6QeIQkic4-71" edge="1">
          <mxGeometry relative="1" as="geometry" />
        </mxCell>
        <mxCell id="ZxTAI9Kc_Le6QeIQkic4-66" value="Penerimaan Gaji" style="rounded=1;whiteSpace=wrap;html=1;" parent="ZxTAI9Kc_Le6QeIQkic4-2" vertex="1">
          <mxGeometry x="42.5" y="800" width="100" height="50" as="geometry" />
        </mxCell>
        <mxCell id="ZxTAI9Kc_Le6QeIQkic4-71" value="Selesai" style="ellipse;whiteSpace=wrap;html=1;" parent="ZxTAI9Kc_Le6QeIQkic4-2" vertex="1">
          <mxGeometry x="57.499999999999545" y="870" width="70" height="50" as="geometry" />
        </mxCell>
        <mxCell id="ZxTAI9Kc_Le6QeIQkic4-3" value="&lt;p style=&quot;line-height: 120%;&quot;&gt;&lt;/p&gt;&lt;div&gt;Data Administrasi&amp;nbsp;&lt;/div&gt;&lt;div&gt;dan keuangan&lt;/div&gt;&lt;p&gt;&lt;/p&gt;" style="swimlane;startSize=50;html=1;" parent="ZxTAI9Kc_Le6QeIQkic4-1" vertex="1">
          <mxGeometry x="184.99999999999955" y="40" width="195" height="940" as="geometry" />
        </mxCell>
        <mxCell id="ZxTAI9Kc_Le6QeIQkic4-26" value="" style="edgeStyle=orthogonalEdgeStyle;rounded=0;orthogonalLoop=1;jettySize=auto;html=1;" parent="ZxTAI9Kc_Le6QeIQkic4-3" source="ZxTAI9Kc_Le6QeIQkic4-21" target="ZxTAI9Kc_Le6QeIQkic4-22" edge="1">
          <mxGeometry relative="1" as="geometry" />
        </mxCell>
        <mxCell id="ZxTAI9Kc_Le6QeIQkic4-21" value="Biodata" style="shape=document;whiteSpace=wrap;html=1;boundedLbl=1;" parent="ZxTAI9Kc_Le6QeIQkic4-3" vertex="1">
          <mxGeometry x="53.750000000000455" y="60" width="87.5" height="70" as="geometry" />
        </mxCell>
        <mxCell id="ZxTAI9Kc_Le6QeIQkic4-28" value="" style="edgeStyle=orthogonalEdgeStyle;rounded=0;orthogonalLoop=1;jettySize=auto;html=1;" parent="ZxTAI9Kc_Le6QeIQkic4-3" source="ZxTAI9Kc_Le6QeIQkic4-22" target="ZxTAI9Kc_Le6QeIQkic4-27" edge="1">
          <mxGeometry relative="1" as="geometry" />
        </mxCell>
        <mxCell id="ZxTAI9Kc_Le6QeIQkic4-22" value="Database" style="rounded=1;whiteSpace=wrap;html=1;" parent="ZxTAI9Kc_Le6QeIQkic4-3" vertex="1">
          <mxGeometry x="49.38" y="150" width="95" height="50" as="geometry" />
        </mxCell>
        <mxCell id="ZxTAI9Kc_Le6QeIQkic4-30" value="" style="edgeStyle=orthogonalEdgeStyle;rounded=0;orthogonalLoop=1;jettySize=auto;html=1;" parent="ZxTAI9Kc_Le6QeIQkic4-3" source="ZxTAI9Kc_Le6QeIQkic4-27" target="ZxTAI9Kc_Le6QeIQkic4-29" edge="1">
          <mxGeometry relative="1" as="geometry" />
        </mxCell>
        <mxCell id="ZxTAI9Kc_Le6QeIQkic4-27" value="Data Administrasi" style="shape=document;whiteSpace=wrap;html=1;boundedLbl=1;rounded=1;" parent="ZxTAI9Kc_Le6QeIQkic4-3" vertex="1">
          <mxGeometry x="52.81" y="230" width="89.38" height="70" as="geometry" />
        </mxCell>
        <mxCell id="ZxTAI9Kc_Le6QeIQkic4-29" value="A" style="ellipse;whiteSpace=wrap;html=1;rounded=1;" parent="ZxTAI9Kc_Le6QeIQkic4-3" vertex="1">
          <mxGeometry x="76.56" y="320" width="41.87" height="40" as="geometry" />
        </mxCell>
        <mxCell id="ZxTAI9Kc_Le6QeIQkic4-40" value="" style="edgeStyle=orthogonalEdgeStyle;rounded=0;orthogonalLoop=1;jettySize=auto;html=1;entryX=0.5;entryY=0;entryDx=0;entryDy=0;" parent="ZxTAI9Kc_Le6QeIQkic4-3" source="ZxTAI9Kc_Le6QeIQkic4-36" target="ZxTAI9Kc_Le6QeIQkic4-41" edge="1">
          <mxGeometry relative="1" as="geometry">
            <mxPoint x="99.60000000000036" y="515" as="targetPoint" />
          </mxGeometry>
        </mxCell>
        <mxCell id="ZxTAI9Kc_Le6QeIQkic4-36" value="Rekapitulasi Kehadiran" style="shape=hexagon;perimeter=hexagonPerimeter2;whiteSpace=wrap;html=1;fixedSize=1;" parent="ZxTAI9Kc_Le6QeIQkic4-3" vertex="1">
          <mxGeometry x="49" y="385" width="101.25" height="60" as="geometry" />
        </mxCell>
        <mxCell id="ZxTAI9Kc_Le6QeIQkic4-44" value="" style="edgeStyle=orthogonalEdgeStyle;rounded=0;orthogonalLoop=1;jettySize=auto;html=1;" parent="ZxTAI9Kc_Le6QeIQkic4-3" source="ZxTAI9Kc_Le6QeIQkic4-41" target="ZxTAI9Kc_Le6QeIQkic4-43" edge="1">
          <mxGeometry relative="1" as="geometry" />
        </mxCell>
        <mxCell id="ZxTAI9Kc_Le6QeIQkic4-41" value="Rincian Gaji" style="shape=hexagon;perimeter=hexagonPerimeter2;whiteSpace=wrap;html=1;fixedSize=1;" parent="ZxTAI9Kc_Le6QeIQkic4-3" vertex="1">
          <mxGeometry x="49" y="470" width="101.25" height="60" as="geometry" />
        </mxCell>
        <mxCell id="ZxTAI9Kc_Le6QeIQkic4-43" value="Data Kehadiran dan Gaji" style="shape=document;whiteSpace=wrap;html=1;boundedLbl=1;rounded=1;" parent="ZxTAI9Kc_Le6QeIQkic4-3" vertex="1">
          <mxGeometry x="55" y="550" width="89.38" height="70" as="geometry" />
        </mxCell>
        <mxCell id="ZxTAI9Kc_Le6QeIQkic4-60" value="" style="edgeStyle=orthogonalEdgeStyle;rounded=0;orthogonalLoop=1;jettySize=auto;html=1;" parent="ZxTAI9Kc_Le6QeIQkic4-3" source="ZxTAI9Kc_Le6QeIQkic4-58" target="ZxTAI9Kc_Le6QeIQkic4-59" edge="1">
          <mxGeometry relative="1" as="geometry" />
        </mxCell>
        <mxCell id="ZxTAI9Kc_Le6QeIQkic4-58" value="B" style="ellipse;whiteSpace=wrap;html=1;rounded=1;" parent="ZxTAI9Kc_Le6QeIQkic4-3" vertex="1">
          <mxGeometry x="76.57" y="650" width="41.87" height="40" as="geometry" />
        </mxCell>
        <mxCell id="ZxTAI9Kc_Le6QeIQkic4-59" value="Draft Gaji" style="shape=document;whiteSpace=wrap;html=1;boundedLbl=1;rounded=1;" parent="ZxTAI9Kc_Le6QeIQkic4-3" vertex="1">
          <mxGeometry x="52.81" y="710" width="89.38" height="70" as="geometry" />
        </mxCell>
        <mxCell id="ZxTAI9Kc_Le6QeIQkic4-68" value="Verifikasi Penerima" style="shape=trapezoid;perimeter=trapezoidPerimeter;whiteSpace=wrap;html=1;fixedSize=1;direction=west;" parent="ZxTAI9Kc_Le6QeIQkic4-3" vertex="1">
          <mxGeometry x="27.5" y="800" width="140" height="50" as="geometry" />
        </mxCell>
        <mxCell id="ZxTAI9Kc_Le6QeIQkic4-5" value="HRD" style="swimlane;startSize=50;html=1;" parent="ZxTAI9Kc_Le6QeIQkic4-1" vertex="1">
          <mxGeometry x="379.99999999999955" y="40" width="200" height="940" as="geometry" />
        </mxCell>
        <mxCell id="ZxTAI9Kc_Le6QeIQkic4-47" style="edgeStyle=orthogonalEdgeStyle;rounded=0;orthogonalLoop=1;jettySize=auto;html=1;entryX=0.5;entryY=0;entryDx=0;entryDy=0;" parent="ZxTAI9Kc_Le6QeIQkic4-5" source="ZxTAI9Kc_Le6QeIQkic4-45" target="ZxTAI9Kc_Le6QeIQkic4-46" edge="1">
          <mxGeometry relative="1" as="geometry" />
        </mxCell>
        <mxCell id="ZxTAI9Kc_Le6QeIQkic4-45" value="Data Kehadiran dan Gaji" style="shape=document;whiteSpace=wrap;html=1;boundedLbl=1;rounded=1;" parent="ZxTAI9Kc_Le6QeIQkic4-5" vertex="1">
          <mxGeometry x="52.809999999999945" y="60" width="89.38" height="70" as="geometry" />
        </mxCell>
        <mxCell id="ZxTAI9Kc_Le6QeIQkic4-50" style="edgeStyle=orthogonalEdgeStyle;rounded=0;orthogonalLoop=1;jettySize=auto;html=1;entryX=0.5;entryY=0;entryDx=0;entryDy=0;" parent="ZxTAI9Kc_Le6QeIQkic4-5" source="ZxTAI9Kc_Le6QeIQkic4-46" target="ZxTAI9Kc_Le6QeIQkic4-49" edge="1">
          <mxGeometry relative="1" as="geometry">
            <Array as="points">
              <mxPoint x="99" y="240" />
              <mxPoint x="60" y="240" />
            </Array>
          </mxGeometry>
        </mxCell>
        <mxCell id="ZxTAI9Kc_Le6QeIQkic4-57" value="&lt;div&gt;ACC&lt;/div&gt;" style="edgeLabel;html=1;align=center;verticalAlign=middle;resizable=0;points=[];" parent="ZxTAI9Kc_Le6QeIQkic4-50" vertex="1" connectable="0">
          <mxGeometry x="0.0703" y="2" relative="1" as="geometry">
            <mxPoint as="offset" />
          </mxGeometry>
        </mxCell>
        <mxCell id="ZxTAI9Kc_Le6QeIQkic4-54" style="edgeStyle=orthogonalEdgeStyle;rounded=0;orthogonalLoop=1;jettySize=auto;html=1;exitX=0.5;exitY=1;exitDx=0;exitDy=0;" parent="ZxTAI9Kc_Le6QeIQkic4-5" source="ZxTAI9Kc_Le6QeIQkic4-46" target="ZxTAI9Kc_Le6QeIQkic4-53" edge="1">
          <mxGeometry relative="1" as="geometry">
            <Array as="points">
              <mxPoint x="98" y="240" />
              <mxPoint x="135" y="240" />
            </Array>
          </mxGeometry>
        </mxCell>
        <mxCell id="ZxTAI9Kc_Le6QeIQkic4-56" value="Ditolak" style="edgeLabel;html=1;align=center;verticalAlign=middle;resizable=0;points=[];" parent="ZxTAI9Kc_Le6QeIQkic4-54" vertex="1" connectable="0">
          <mxGeometry x="0.3721" y="2" relative="1" as="geometry">
            <mxPoint as="offset" />
          </mxGeometry>
        </mxCell>
        <mxCell id="ZxTAI9Kc_Le6QeIQkic4-46" value="Persetujuan" style="rhombus;whiteSpace=wrap;html=1;" parent="ZxTAI9Kc_Le6QeIQkic4-5" vertex="1">
          <mxGeometry x="54.69" y="150" width="87.5" height="70" as="geometry" />
        </mxCell>
        <mxCell id="ZxTAI9Kc_Le6QeIQkic4-52" value="" style="edgeStyle=orthogonalEdgeStyle;rounded=0;orthogonalLoop=1;jettySize=auto;html=1;" parent="ZxTAI9Kc_Le6QeIQkic4-5" source="ZxTAI9Kc_Le6QeIQkic4-49" target="ZxTAI9Kc_Le6QeIQkic4-51" edge="1">
          <mxGeometry relative="1" as="geometry" />
        </mxCell>
        <mxCell id="ZxTAI9Kc_Le6QeIQkic4-49" value="Draft Gaji" style="shape=document;whiteSpace=wrap;html=1;boundedLbl=1;rounded=1;" parent="ZxTAI9Kc_Le6QeIQkic4-5" vertex="1">
          <mxGeometry x="15" y="280" width="89.38" height="70" as="geometry" />
        </mxCell>
        <mxCell id="ZxTAI9Kc_Le6QeIQkic4-51" value="B" style="ellipse;whiteSpace=wrap;html=1;rounded=1;" parent="ZxTAI9Kc_Le6QeIQkic4-5" vertex="1">
          <mxGeometry x="38.75999999999999" y="380" width="41.87" height="40" as="geometry" />
        </mxCell>
        <mxCell id="ZxTAI9Kc_Le6QeIQkic4-53" value="Tinjauan ulang" style="shape=trapezoid;perimeter=trapezoidPerimeter;whiteSpace=wrap;html=1;fixedSize=1;direction=west;" parent="ZxTAI9Kc_Le6QeIQkic4-5" vertex="1">
          <mxGeometry x="80.63" y="430" width="115" height="45" as="geometry" />
        </mxCell>
        <mxCell id="ZxTAI9Kc_Le6QeIQkic4-4" value="Bank" style="swimlane;startSize=50;html=1;" parent="ZxTAI9Kc_Le6QeIQkic4-1" vertex="1">
          <mxGeometry x="579.9999999999995" y="40" width="170" height="940" as="geometry">
            <mxRectangle x="579.9999999999995" y="40" width="40" height="940" as="alternateBounds" />
          </mxGeometry>
        </mxCell>
        <mxCell id="ZxTAI9Kc_Le6QeIQkic4-62" value="Pencairan Gaji" style="rounded=1;whiteSpace=wrap;html=1;" parent="ZxTAI9Kc_Le6QeIQkic4-4" vertex="1">
          <mxGeometry x="37.5" y="720" width="95" height="50" as="geometry" />
        </mxCell>
        <mxCell id="NnZ2yExbbOCjRQzotq59-20" value="Bank" style="swimlane;startSize=50;html=1;" vertex="1" parent="ZxTAI9Kc_Le6QeIQkic4-1">
          <mxGeometry x="749.9999999999995" y="40" width="170" height="940" as="geometry">
            <mxRectangle x="579.9999999999995" y="40" width="40" height="940" as="alternateBounds" />
          </mxGeometry>
        </mxCell>
        <mxCell id="NnZ2yExbbOCjRQzotq59-21" value="Pencairan Gaji" style="rounded=1;whiteSpace=wrap;html=1;" vertex="1" parent="NnZ2yExbbOCjRQzotq59-20">
          <mxGeometry x="37.5" y="720" width="95" height="50" as="geometry" />
        </mxCell>
        <mxCell id="ZxTAI9Kc_Le6QeIQkic4-25" style="edgeStyle=orthogonalEdgeStyle;rounded=0;orthogonalLoop=1;jettySize=auto;html=1;exitX=1;exitY=0.5;exitDx=0;exitDy=0;entryX=0;entryY=0.5;entryDx=0;entryDy=0;" parent="ZxTAI9Kc_Le6QeIQkic4-1" source="ZxTAI9Kc_Le6QeIQkic4-20" target="ZxTAI9Kc_Le6QeIQkic4-21" edge="1">
          <mxGeometry relative="1" as="geometry">
            <Array as="points">
              <mxPoint x="170" y="275" />
              <mxPoint x="170" y="135" />
            </Array>
          </mxGeometry>
        </mxCell>
        <mxCell id="ZxTAI9Kc_Le6QeIQkic4-37" style="edgeStyle=orthogonalEdgeStyle;rounded=0;orthogonalLoop=1;jettySize=auto;html=1;exitX=1;exitY=0.5;exitDx=0;exitDy=0;" parent="ZxTAI9Kc_Le6QeIQkic4-1" source="ZxTAI9Kc_Le6QeIQkic4-32" target="ZxTAI9Kc_Le6QeIQkic4-36" edge="1">
          <mxGeometry relative="1" as="geometry" />
        </mxCell>
        <mxCell id="ZxTAI9Kc_Le6QeIQkic4-64" style="edgeStyle=orthogonalEdgeStyle;rounded=0;orthogonalLoop=1;jettySize=auto;html=1;exitX=1;exitY=0.5;exitDx=0;exitDy=0;entryX=0;entryY=0.5;entryDx=0;entryDy=0;" parent="ZxTAI9Kc_Le6QeIQkic4-1" source="ZxTAI9Kc_Le6QeIQkic4-59" target="ZxTAI9Kc_Le6QeIQkic4-62" edge="1">
          <mxGeometry relative="1" as="geometry" />
        </mxCell>
        <mxCell id="ZxTAI9Kc_Le6QeIQkic4-69" style="edgeStyle=orthogonalEdgeStyle;rounded=0;orthogonalLoop=1;jettySize=auto;html=1;exitX=0.5;exitY=1;exitDx=0;exitDy=0;entryX=0;entryY=0.5;entryDx=0;entryDy=0;" parent="ZxTAI9Kc_Le6QeIQkic4-1" source="ZxTAI9Kc_Le6QeIQkic4-62" target="ZxTAI9Kc_Le6QeIQkic4-68" edge="1">
          <mxGeometry relative="1" as="geometry">
            <Array as="points">
              <mxPoint x="665" y="865" />
            </Array>
          </mxGeometry>
        </mxCell>
        <mxCell id="ZxTAI9Kc_Le6QeIQkic4-70" style="edgeStyle=orthogonalEdgeStyle;rounded=0;orthogonalLoop=1;jettySize=auto;html=1;exitX=1;exitY=0.5;exitDx=0;exitDy=0;entryX=1;entryY=0.5;entryDx=0;entryDy=0;" parent="ZxTAI9Kc_Le6QeIQkic4-1" source="ZxTAI9Kc_Le6QeIQkic4-68" target="ZxTAI9Kc_Le6QeIQkic4-66" edge="1">
          <mxGeometry relative="1" as="geometry" />
        </mxCell>
        <mxCell id="NnZ2yExbbOCjRQzotq59-9" value="MASTER GAJI" style="swimlane;startSize=50;html=1;" vertex="1" parent="1">
          <mxGeometry x="909.9999999999995" y="-1040" width="170" height="940" as="geometry">
            <mxRectangle x="579.9999999999995" y="40" width="40" height="940" as="alternateBounds" />
          </mxGeometry>
        </mxCell>
        <mxCell id="NnZ2yExbbOCjRQzotq59-12" value="Pool" style="swimlane;childLayout=stackLayout;resizeParent=1;resizeParentMax=0;startSize=20;html=1;" vertex="1" parent="1">
          <mxGeometry x="1240" y="-1080" width="360" height="480" as="geometry" />
        </mxCell>
        <mxCell id="NnZ2yExbbOCjRQzotq59-13" value="Lane 1" style="swimlane;startSize=20;html=1;" vertex="1" parent="NnZ2yExbbOCjRQzotq59-12">
          <mxGeometry y="20" width="120" height="460" as="geometry" />
        </mxCell>
        <mxCell id="NnZ2yExbbOCjRQzotq59-14" value="Lane 2" style="swimlane;startSize=20;html=1;" vertex="1" parent="NnZ2yExbbOCjRQzotq59-12">
          <mxGeometry x="120" y="20" width="120" height="460" as="geometry" />
        </mxCell>
        <mxCell id="NnZ2yExbbOCjRQzotq59-15" value="Lane 3" style="swimlane;startSize=20;html=1;" vertex="1" parent="NnZ2yExbbOCjRQzotq59-12">
          <mxGeometry x="240" y="20" width="120" height="460" as="geometry" />
        </mxCell>
        <mxCell id="NnZ2yExbbOCjRQzotq59-17" value="Lane 3" style="swimlane;startSize=20;html=1;" vertex="1" parent="1">
          <mxGeometry x="1600.0000000000005" y="-1060" width="120" height="460" as="geometry" />
        </mxCell>
      </root>
    </mxGraphModel>
  </diagram>
</mxfile>
